<svg xmlns="http://www.w3.org/2000/svg" data-name="Layer 1" viewBox="0 0 36.85 37.67"><path fill="#fff" d="M18.38 1.18a17.65 17.65 0 1 0 17.69 17.61A17.66 17.66 0 0 0 18.38 1.18zm-2 28.19h-.9a6.38 6.38 0 0 1-4.89-10.52 6.38 6.38 0 0 1 4.82-10.54h5.94a6.39 6.39 0 0 1 0 12.78h-5.94a1.88 1.88 0 0 0 0 3.76h.9a2.26 2.26 0 0 1 0 4.52zm5.51 0a2.28 2.28 0 1 1 2.26-2.28 2.27 2.27 0 0 1-2.28 2.28zm4.52-1.89a1.43 1.43 0 1 1 1.42-1.43 1.42 1.42 0 0 1-1.44 1.43z"/><path fill="#fff" d="M15.43 16.58h5.94a1.88 1.88 0 0 0 0-3.76h-5.95a1.88 1.88 0 1 0 0 3.76z"/></svg>