<svg id="Layer_1" data-name="Layer 1" xmlns="http://www.w3.org/2000/svg" viewBox="0 0 1382.4 777.6">
  <title>Load</title>
  <rect x="-2.59" y="-4.49" width="1387.57" height="786.58" style="fill: #758ca0;opacity: 0.2"/>
  <g style="opacity: 0.4">
    <g>
      <path d="M938.07,370.56l48.15-.12a15.25,15.25,0,0,0-.08-30.49l-48.15.12a15.25,15.25,0,1,0,.08,30.49Z" style="fill: #758ca0"/>
      <path d="M962,245.69a143.11,143.11,0,1,0,143.46,142.76A143.12,143.12,0,0,0,962,245.69ZM945.63,474.2l-7.31,0A51.79,51.79,0,0,1,898.64,389a51.79,51.79,0,0,1,39.26-85.46l48.15-.12A51.83,51.83,0,1,1,986.31,407l-48.15.12a15.24,15.24,0,1,0,.07,30.48h7.31a18.29,18.29,0,1,1,.09,36.58Zm44.63,0a18.43,18.43,0,1,1,18.38-18.47A18.43,18.43,0,0,1,990.26,474.23ZM1027,458.92a11.56,11.56,0,1,1,11.53-11.58A11.54,11.54,0,0,1,1027,458.92Z" style="fill: #758ca0"/>
    </g>
    <path d="M702.52,446.93a11.65,11.65,0,1,0,11.67,11.62A11.63,11.63,0,0,0,702.52,446.93Z" style="fill: #758ca0"/>
    <path d="M517.92,446.93a11.65,11.65,0,1,0,11.68,11.62A11.65,11.65,0,0,0,517.92,446.93Z" style="fill: #758ca0"/>
    <path d="M725.73,445.94a7.31,7.31,0,1,0,7.32,7.28A7.3,7.3,0,0,0,725.73,445.94Z" style="fill: #758ca0"/>
    <path d="M718.42,467.37a7.31,7.31,0,1,0,7.33,7.28A7.3,7.3,0,0,0,718.42,467.37Z" style="fill: #758ca0"/>
    <path d="M708.49,341.4H685a8.73,8.73,0,0,0,0,17.45h23.53a26,26,0,0,1,0,52.08H651.93a8.73,8.73,0,0,0,0,17.45h11.36a42.75,42.75,0,0,1-82.43-15.93V395.57a8.72,8.72,0,0,0-17.44,0v16.88a60.19,60.19,0,0,0,118.24,15.93h26.83a43.49,43.49,0,0,0,0-87Z" style="fill: #758ca0"/>
    <path d="M460.72,293.64H398.56a32.63,32.63,0,0,0-.15,65.26H422A26,26,0,1,1,422,411H365.46a8.72,8.72,0,1,0,0,17.44h11.36a42.75,42.75,0,0,1-82.43-15.92V395.63a8.72,8.72,0,1,0-17.44,0v16.89a60.19,60.19,0,0,0,118.24,15.92H422a43.49,43.49,0,0,0,0-87H398.56a15.19,15.19,0,1,1,0-30.38h62.16a8.72,8.72,0,0,0,0-17.44Z" style="fill: #758ca0"/>
    <path d="M541.87,386.67a8.73,8.73,0,0,0-8.73,8.73,15.19,15.19,0,1,1-30.38,0v-93a8.72,8.72,0,1,0-17.44,0v93a32.64,32.64,0,0,0,65.27,0A8.73,8.73,0,0,0,541.87,386.67Z" style="fill: #758ca0"/>
  </g>
</svg>
