<svg xmlns="http://www.w3.org/2000/svg" data-name="Layer 1" viewBox="0 0 100 100">
  <circle cx="50" cy="50" r="50" fill="#1e87f0"/>
  <circle cx="59.74" cy="73.41" r="6.44" fill="#fff"/>
  <circle cx="72.56" cy="70.46" r="4.04" fill="#fff"/>
  <path fill="#fff" d="M58.28 20.15H41.46a18.09 18.09 0 0 0-13.71 29.9 18.09 18.09 0 0 0 13.86 29.79h2.55a6.4 6.4 0 1 0 0-12.79h-2.58a5.33 5.33 0 0 1 0-10.65H58.4a18.11 18.11 0 1 0-.09-36.22zM41.52 43.63a5.33 5.33 0 0 1 0-10.65h16.83a5.33 5.33 0 0 1 0 10.66z"/>
</svg>
