<svg xmlns="http://www.w3.org/2000/svg" data-name="Layer 1" viewBox="0 0 288 100"><path fill="#fff" d="M238 .32a49.68 49.68 0 1 0 49.8 49.56A49.68 49.68 0 0 0 238 .32zm-5.68 79.33h-2.54A18 18 0 0 1 216 50.05a18 18 0 0 1 13.63-29.67h16.71a18 18 0 0 1 .09 36h-16.71a5.29 5.29 0 0 0 0 10.58h2.54a6.35 6.35 0 1 1 0 12.7zm15.5 0a6.4 6.4 0 1 1 6.38-6.42 6.4 6.4 0 0 1-6.38 6.43zm12.73-5.32a4 4 0 1 1 4-4 4 4 0 0 1-4 4.01z"/><path fill="#fff" d="M229.7 43.67h16.71a5.3 5.3 0 1 0 0-10.59H229.7a5.3 5.3 0 0 0 0 10.59zm-81.77 26.85a4 4 0 1 0 4 4 4.05 4.05 0 0 0-4-4zm-64.08 0a4 4 0 1 0 4.05 4 4 4 0 0 0-4.05-4zm72.15-.34a2.54 2.54 0 1 0 2.54 2.53 2.53 2.53 0 0 0-2.54-2.53zm-2.55 7.44a2.54 2.54 0 1 0 2.55 2.53 2.54 2.54 0 0 0-2.55-2.53zM150 33.89h-8.17a3 3 0 0 0 0 6.06H150A9 9 0 0 1 150 58h-19.63a3 3 0 1 0 0 6h3.94a14.83 14.83 0 0 1-28.61-5.52V52.7a3 3 0 0 0-6.06 0v5.86a20.9 20.9 0 0 0 41.05 5.52H150a15.1 15.1 0 1 0 0-30.19zM64 17.31H42.41a11.33 11.33 0 0 0 0 22.66h8.2a9 9 0 0 1 0 18.08H30.92a3 3 0 0 0 0 6.06h3.95a14.84 14.84 0 0 1-28.62-5.53v-5.86a3 3 0 1 0-6 0v5.86a20.89 20.89 0 0 0 41 5.53h9.32a15.1 15.1 0 0 0 0-30.2h-8.16a5.27 5.27 0 1 1 0-10.54H64a3 3 0 0 0 0-6.06zm28.16 32.3a3 3 0 0 0-3 3 5.27 5.27 0 1 1-10.54 0V20.34a3 3 0 0 0-6.06 0v32.29a11.33 11.33 0 0 0 22.66 0 3 3 0 0 0-3.06-3.02z"/></svg>