<svg xmlns="http://www.w3.org/2000/svg" data-name="Layer 1" viewBox="0 0 100 100">
  <path fill="#01192d" d="M73.75 91.72a16.67 16.67 0 0 0-8 1.45A1.39 1.39 0 0 0 65 94.3l-.4 5.7H66l.09-1.35.7-.34a13.74 13.74 0 0 1 6.64-1.18l-.2 2.87h1.36l.41-6.83a1.36 1.36 0 0 0-1.25-1.45zm-.27 4.06a15.36 15.36 0 0 0-7.33 1.31l.18-2.7a15.36 15.36 0 0 1 7.33-1.32zM48.9 97a4.23 4.23 0 0 0 0-3.29A3.46 3.46 0 0 0 46.43 92a15.18 15.18 0 0 0-1.92-.26h-.42a6 6 0 0 1 2.11-2.44.46.46 0 1 0-.49-.78 7 7 0 0 0-2.57 3l-.76-.28a14.17 14.17 0 0 0-1.84-.61 3.43 3.43 0 0 0-3 .43 4.23 4.23 0 0 0-1.43 3l-2.92 1.82a.93.93 0 0 0-.3 1.28l1.47 2.36a.93.93 0 0 0 1.28.29l.49-.31c0 .18.05.34.08.5h.95a5.72 5.72 0 0 1-.16-1.28c0-.4 0-.77-.06-1.18l9.65 2.23a1.71 1.71 0 0 1-.13.23h1.06a18.72 18.72 0 0 0 .94-1.9l.47.75-.39.25a.46.46 0 1 0 .49.78l.39-.24.23.36h1.09a.16.16 0 0 1 0-.07zm-13.72 2l-1.47-2.36.78-.49.25.39a.46.46 0 1 0 .78-.49l-.24-.39.75-.47a20.84 20.84 0 0 0 0 2.59v.64zm12.61-1.6c-.25.6-.48 1.09-.71 1.53l-10.15-2.35V94.9a7.11 7.11 0 0 1 .14-1.13l1.46.34-.1.45a.46.46 0 1 0 .9.21l.11-.45 2.7.62-.21.91a.47.47 0 0 0 .91.2l.21-.9 2.7.63-.1.45a.45.45 0 0 0 .34.55.46.46 0 0 0 .56-.34l.1-.45 1.47.34a8.08 8.08 0 0 1-.33 1.07zm.53-2l-11-2.53c.6-1.47 1.77-1.58 3-1.31s2.15.81 2.87 1 1.95.15 3 .4 2.23.87 2.13 2.45zM7.26 54.15a.34.34 0 0 0-.19.44.35.35 0 0 0 .45.2.35.35 0 0 0 .19-.45.34.34 0 0 0-.45-.19zM7.7 69.23a.34.34 0 1 0 .25.63.34.34 0 1 0-.25-.63z"/>
  <path fill="#01192d" d="M9.79 55.85l-.42-1.06.32-.13a.35.35 0 0 1 .45.2L11 57a.36.36 0 0 1-.14.43L5 61a1 1 0 0 0-.43 1.27l.16.41-1 .38a1 1 0 0 0-.56.55 1 1 0 0 0 0 .79 1 1 0 0 0 1.31.6l1.21 4.74c0 .09 0 .18.09.27a2.07 2.07 0 0 0 3.84-1.53l-.12-.25-2.37-4.3a1 1 0 0 0 .52-.53A1 1 0 0 0 6.32 62l-1 .39L5.2 62a.34.34 0 0 1 .15-.42L11.18 58a1 1 0 0 0 .43-1.27l-.83-2.11A1 1 0 0 0 9.43 54l-.31.13-.39-1a1 1 0 0 0-1.34-.58l-7.39 3v.74l7.65-3a.34.34 0 0 1 .44.2l1.06 2.61a.35.35 0 0 1-.19.45L0 60.1v.74l9.21-3.65a1 1 0 0 0 .58-1.34zm-.9 12.7s0 .11.08.17a1.38 1.38 0 0 1-2.56 1 1.89 1.89 0 0 1-.06-.18l-1.22-4.81 1.35-.54zm-2.31-5.88a.34.34 0 0 1 .44.2.3.3 0 0 1 0 .26.34.34 0 0 1-.19.18l-.32.13-1.92.76-.32.13a.34.34 0 0 1-.44-.19.32.32 0 0 1 0-.27.34.34 0 0 1 .17-.18z"/>
  <path fill="#01192d" d="M6.43 54.85a.35.35 0 0 0-.45-.2L0 57v.74l6.24-2.48a.34.34 0 0 0 .19-.41zM22.7 97.72V100h1.93a2.3 2.3 0 0 0-1.93-2.28zM20 100h1.93v-2.28A2.3 2.3 0 0 0 20 100zM5.12 96.29a.26.26 0 0 1-.33.16 1.79 1.79 0 0 0-1.93.46.26.26 0 0 1-.23.08.26.26 0 0 1-.13-.06.25.25 0 0 1 0-.36A2.31 2.31 0 0 1 5 96a.25.25 0 0 1 .12.29zm.88.4a.27.27 0 0 1-.1.17h-.24a.27.27 0 0 1 0-.19h.14a.07.07 0 0 1 .2.02z"/>
  <path fill="#01192d" d="M5 96a2.31 2.31 0 0 0-2.48.6.25.25 0 0 0 0 .36.26.26 0 0 0 .13.06.26.26 0 0 0 .23-.08 1.79 1.79 0 0 1 1.93-.46.26.26 0 0 0 .33-.16A.25.25 0 0 0 5 96z"/>
  <path fill="#01192d" d="M2.44 95.91a3 3 0 0 1 2.22-.5 2.89 2.89 0 0 1 1.12.44 3.57 3.57 0 0 1 .43.34v.05l.07.11.06.1.46.55a3.61 3.61 0 0 1 .2.6 3 3 0 0 1 0 1.24 2.92 2.92 0 0 1-.37 1.16h.59a3.45 3.45 0 0 0 .35-2.35L10 96a.27.27 0 0 0 .08-.1l.45-.95 1.2-.2a.27.27 0 0 0 .21-.19l.21-.75.77.06a.26.26 0 0 0 .17 0l1.56-1.1a.24.24 0 0 0 .1-.14l.22-.91a1 1 0 0 0-.86-1.22l-.92-.09a.28.28 0 0 0-.18 0l-7.07 5a3.66 3.66 0 0 0-1.17-.43 3.43 3.43 0 0 0-2.6.59A3.48 3.48 0 0 0 1.09 100h.59a3 3 0 0 1 .76-4.09zm10.77-5.09l.83.09a.42.42 0 0 1 .15 0l-1.12.81a.25.25 0 0 0-.06.35.23.23 0 0 0 .17.1.27.27 0 0 0 .19 0l1.1-.8a.53.53 0 0 1 0 .13l-.2.81-1.41 1-.86-.07a.24.24 0 0 0-.26.18l-.23.8-1.18.2a.25.25 0 0 0-.19.14l-.47 1-2.25 1.57a3.43 3.43 0 0 0-.28-.58l.9-.63a.25.25 0 1 0-.3-.41l-.89.63a3.24 3.24 0 0 0-.49-.49z"/>
  <path fill="#01192d" d="M4.31 99.25a1.2 1.2 0 0 0-1-1.39 1.22 1.22 0 0 0-.89.2 1.2 1.2 0 0 0-.29 1.67 1.15 1.15 0 0 0 .27.27h1.46a1.18 1.18 0 0 0 .45-.75zm-.5-.09a.68.68 0 0 1-.27.43 2.27 2.27 0 0 1-.24-.36.26.26 0 0 0-.44.26l.14.23a.74.74 0 0 1-.43-.28.69.69 0 0 1 .68-1.08.71.71 0 0 1 .44.29.67.67 0 0 1 .12.51zM12.53 98.79l-.67-.79a.9.9 0 0 0-1.28-.14l-2.4 1.93A.79.79 0 0 0 8 100h.69l2.22-1.79a.39.39 0 0 1 .56.07l.68.83a.44.44 0 0 1 .08.3.39.39 0 0 1-.15.27l-.4.32h.8a.92.92 0 0 0 .26-.54 1 1 0 0 0-.21-.67zM6 96.55h-.3a.27.27 0 0 0 0 .19h.2a.27.27 0 0 0 .1-.17.43.43 0 0 0 0-.02zM99.17 14a2.34 2.34 0 0 1-3.27.52l-4-2.88a.37.37 0 0 0-.52.09l-.78 1.07-.52-.08a.38.38 0 0 0-.36.15l-1 1.38a.94.94 0 0 1-1.31.21.75.75 0 0 1-.19-1l2.58-3.89 3-2.4 3.45 2.5a.39.39 0 0 0 .53-.08.38.38 0 0 0-.09-.53l-3.64-2.68a.6.6 0 1 1 .71-1L100 9.93V9l-5.8-4.2a1.35 1.35 0 0 0-1.92 1.85L89.32 9l-.08.08L86.62 13a1.5 1.5 0 0 0 .38 2 1.69 1.69 0 0 0 2.35-.38l.87-1.2.53.08a.39.39 0 0 0 .36-.15l.69-.95.14.1-.26.35a.38.38 0 0 0 .09.53.37.37 0 0 0 .52-.09l.26-.35 2.91 2.12a3.1 3.1 0 0 0 4.2-.54l.34.25v-2z"/>
  <path fill="#01192d" d="M97.3 10.39l.17.12a.37.37 0 0 0 .44-.6l-.17-.12a.37.37 0 0 0-.52.08.38.38 0 0 0 .08.52zM96.51 13.67l-1-.71A.38.38 0 0 0 95 13a.37.37 0 0 0 .09.52l1 .72a.38.38 0 0 0 .44-.61zM97.12 12.82l-1-.71a.38.38 0 0 0-.44.61l1 .71a.38.38 0 0 0 .52-.08.37.37 0 0 0-.08-.53zM97.73 12l-1-.71a.36.36 0 0 0-.52.08.38.38 0 0 0 .08.52l1 .71a.36.36 0 0 0 .52-.08.37.37 0 0 0-.08-.52zM99.81 35.29a.36.36 0 0 0 .14.11v-1.03l-.24.53a.37.37 0 0 0 .1.39z"/>
  <path fill="#01192d" d="M91.86 41.27l5-11 3.14 1.46v-.84l-3.17-1.44A1.36 1.36 0 0 1 98 27l2 .93v-.83l-1.72-.79a2.13 2.13 0 0 0-2.81 1.05L90.15 39a2.12 2.12 0 0 0 1 2.8l8.8 4V45zm-.67-.36a1.34 1.34 0 0 1-.35-1.59l4.65-10.19a2.12 2.12 0 0 0 .7.82z"/>
  <path fill="#01192d" d="M97.31 35.83a.38.38 0 0 0-.5.19.39.39 0 0 0 .19.5l3 1.37v-.84zM95.37 37.55a.38.38 0 1 0-.32.69l5 2.26v-.84zM84.7 99.16h.78v.84h1.82a2.32 2.32 0 0 0-4.42 0h1.82zM85.09 3A2.32 2.32 0 0 0 87.41.7a2.33 2.33 0 0 0-.11-.7h-1.82v.32h1.16v.77h-1.16v1.16h-.78V1.09h-1.15V.32h1.15V0h-1.82a2.33 2.33 0 0 0-.11.7A2.32 2.32 0 0 0 85.09 3z"/>
  <g fill="#01192d">
    <circle cx="56.36" cy="33.95" r=".3"/>
    <path d="M56.41 35.23a.3.3 0 0 0-.34.25 1.62 1.62 0 0 1-1.25 1.22 2.39 2.39 0 0 1-2.42-.53.3.3 0 1 0-.44.4 2.69 2.69 0 0 0 1.44.79 3.21 3.21 0 0 0 .63.06 3.5 3.5 0 0 0 1-.14 2.22 2.22 0 0 0 1.66-1.71.29.29 0 0 0-.28-.34z"/>
    <path d="M60.57 32.58a3.71 3.71 0 0 0-2.2-1.2 17.65 17.65 0 0 0 2.14-1.67c.81-.78 1.09-1.32.86-1.71s-1-.44-2.3 0a22.34 22.34 0 0 0-3.89 1.83l-.72.43a1.61 1.61 0 0 1 .33-1.54 1.15 1.15 0 0 0 .21-1.2 1.24 1.24 0 0 0-1.14-.64 7.69 7.69 0 0 0-7.47 6.91A7.67 7.67 0 0 0 54 42.2a8.26 8.26 0 0 0 3.2-.62 7.22 7.22 0 0 0 3.8-3.79 6.29 6.29 0 0 0 .52-2.37 4.22 4.22 0 0 0-.95-2.84zM54.5 31l1-.59a22.41 22.41 0 0 1 3.63-1.73c1.15-.41 1.62-.38 1.73-.33s-.09.38-.85 1.07a18.31 18.31 0 0 1-2.61 1.88l-1 .62c-.48.27-1 .53-1.43.77a4.52 4.52 0 0 0-.85-1.48zm-.09 2a16.09 16.09 0 0 1-2.24.89 1.44 1.44 0 0 0-.17-.45 1.6 1.6 0 0 0-.28-.35 14.64 14.64 0 0 1 1.88-1.5 3.7 3.7 0 0 1 .47.65 3.94 3.94 0 0 1 .34.76zm6.5 2.46A6.66 6.66 0 0 1 54 41.61a7.07 7.07 0 0 1-.16-14.13.62.62 0 0 1 .6.3.55.55 0 0 1-.1.58 2.18 2.18 0 0 0-.34 2.23l-.47.31a15.61 15.61 0 0 0-2.29 1.81 1.56 1.56 0 0 0-1.23.12 7.51 7.51 0 0 0-1.6 2.37.31.31 0 0 0 0 .28.29.29 0 0 0 .24.14h1.16a4.18 4.18 0 0 0 1.68-.24 1.52 1.52 0 0 0 .72-1 16.35 16.35 0 0 0 2.73-1.08c.58-.28 1.18-.6 1.78-1l.89-.53a3.21 3.21 0 0 1 3.3 3.64zM51.6 34.2a.88.88 0 0 1-.45.72 6 6 0 0 1-2 .15 5.86 5.86 0 0 1 1.16-1.71.9.9 0 0 1 .86 0 .87.87 0 0 1 .36.35.9.9 0 0 1 .07.49z"/>
    <path d="M51.57 28.73a1.2 1.2 0 1 0 1.2 1.2 1.2 1.2 0 0 0-1.2-1.2zm0 1.8a.6.6 0 1 1 .6-.6.6.6 0 0 1-.6.6zM50.08 36.77A1.2 1.2 0 1 0 51.27 38a1.2 1.2 0 0 0-1.19-1.23zm0 1.8a.6.6 0 1 1 .59-.6.6.6 0 0 1-.59.6zM53.07 38.57a1.2 1.2 0 1 0 0 2.39 1.2 1.2 0 0 0 0-2.39zm0 1.8a.6.6 0 1 1 .6-.6.6.6 0 0 1-.6.6zM56.66 38a1.2 1.2 0 1 0 1.19 1.2 1.2 1.2 0 0 0-1.19-1.2zm0 1.8a.6.6 0 1 1 .6-.6.6.6 0 0 1-.6.57zM59.05 35a1.2 1.2 0 1 0 1.2 1.2 1.2 1.2 0 0 0-1.2-1.2zm0 1.79a.59.59 0 0 1-.6-.59.6.6 0 0 1 1.2 0 .59.59 0 0 1-.6.57z"/>
  </g>
  <path fill="#01192d" d="M98.08 60.86a.33.33 0 0 1-.44-.19L96.58 58a.35.35 0 0 1 .2-.45l3.22-1.26v-.74l-3.48 1.38a1 1 0 0 0-.58 1.34l.38 1-.32.13a.34.34 0 0 0-.19.44.35.35 0 0 0 .45.2l.32-.13.42 1.01a1 1 0 0 0 1.34.58l1.66-.66v-.74z"/>
  <path fill="#01192d" d="M97.67 58a.33.33 0 0 0-.19.44.33.33 0 0 0 .44.19l2.08-.82V57z"/>
  <g fill="#01192d">
    <path d="M64.3 59.85a.28.28 0 0 0-.11.37.27.27 0 0 0 .37.1.26.26 0 0 0 .1-.36.27.27 0 0 0-.36-.11zM58.5 65.23a.28.28 0 0 0-.11.37.27.27 0 1 0 .47-.27.26.26 0 0 0-.36-.1zM62 67a2 2 0 0 1-2.63-.68.28.28 0 0 0-.37-.1.26.26 0 0 0-.1.36 2.49 2.49 0 0 0 3.36.89.25.25 0 0 0 .1-.36A.27.27 0 0 0 62 67z"/>
    <path d="M65.26 52.44l-.24.13-.39-.7a.27.27 0 0 0-.37-.1l-.94.52a.27.27 0 0 0-.1.37l.4.7-.24.13a.27.27 0 0 0-.1.37l.83 1.48a1.34 1.34 0 0 0 1.58.62l3.68 6.57a1.31 1.31 0 0 1 .09 1 1.48 1.48 0 0 1-.68.83 1.42 1.42 0 0 1-1.9-.47l-1.65-3a.28.28 0 0 0-.37-.1.27.27 0 0 0-.1.37l1.65 3a2 2 0 0 0 2.64.68 2 2 0 0 0 .95-1.12 1.85 1.85 0 0 0-.13-1.46l-3.71-6.56a1.35 1.35 0 0 0 .29-1.7l-.83-1.48a.26.26 0 0 0-.36-.08zm-1.44.19l.47-.26.26.47-.47.26zM66 54.28a.81.81 0 0 1-1.41.79l-.69-1.24.23-.13.94-.53.24-.13zM58.49 55A3.06 3.06 0 0 0 57 58.32a.81.81 0 0 0-.18 1l.22.38a3.63 3.63 0 0 0-1.1 1.91 3.41 3.41 0 0 0 .34 2.39l1.7 3a3.45 3.45 0 0 0 2.14 1.64 3.6 3.6 0 0 0 2.69-.34 3.66 3.66 0 0 0 1.69-2.12 3.47 3.47 0 0 0-.28-2.68l-1.7-3a3.43 3.43 0 0 0-2.14-1.64 3.65 3.65 0 0 0-1.94 0l-.21-.38a.81.81 0 0 0-.73-.41 2.52 2.52 0 0 1 1.26-2.66 2.42 2.42 0 0 1 3.29.93l1.62 2.88a.25.25 0 0 0 .36.1.27.27 0 0 0 .11-.36l-1.62-2.89A3 3 0 0 0 58.49 55zm-1.2 4.06a.26.26 0 0 1 .1-.36.27.27 0 0 1 .37.1l.17.32a2.59 2.59 0 0 0-.46.26zm6.46 4.77a3 3 0 0 1-5.3 3L56.88 64l2-1.12a.81.81 0 0 0 .93.1.82.82 0 0 0 .4-.84l2-1.11zm-4.58-1.41l-.53-.94a.28.28 0 0 1 .11-.37.27.27 0 0 1 .2 0 .23.23 0 0 1 .16.13l.53.93a.28.28 0 0 1-.11.37.26.26 0 0 1-.36-.12zm-.76-2.92a3.09 3.09 0 0 1 1.83-.08 2.89 2.89 0 0 1 1.67 1.15L60 61.66l-.4-.71a.81.81 0 0 0-1.41.79l.4.71-1.94 1.08a3 3 0 0 1 .9-3.53 2.42 2.42 0 0 1 .41-.27 3.1 3.1 0 0 1 .45-.23z"/>
  </g>
  <g fill="#01192d">
    <path d="M47.08 63.92l-16.3 1.87a1.12 1.12 0 0 0-1 1.24l1.29 11.26a1.13 1.13 0 0 0 1.24 1l5.59-.64.09.81A1.36 1.36 0 0 1 36.8 81l-1.23.14a.43.43 0 0 0 .1.86L46 80.78a.44.44 0 0 0 .38-.48.45.45 0 0 0-.48-.38l-1.23.14a1.36 1.36 0 0 1-1.51-1.19l-.16-.82 5.58-.64a1.13 1.13 0 0 0 1-1.25l-1.26-11.25a1.13 1.13 0 0 0-1.24-.99zm-8.53 16.84a2.34 2.34 0 0 0 .31-1.41l-.1-.81 3.42-.39.1.81a2.13 2.13 0 0 0 .62 1.3zm10.21-4.5a.28.28 0 0 1-.24.3l-16.29 1.86a.26.26 0 0 1-.3-.23l-.26-2.25L48.5 74zm-.36-3.1l-16.82 1.93-.94-8.15a.28.28 0 0 1 .24-.3l16.29-1.86a.26.26 0 0 1 .3.23l.93 8.15z"/>
    <circle cx="40.23" cy="76.24" r=".46"/>
    <path d="M40 67.71a.45.45 0 0 0-.61.07l-2.67 3.37a.42.42 0 0 0 .07.6.37.37 0 0 0 .31.09.39.39 0 0 0 .29-.16l2.68-3.36a.45.45 0 0 0-.07-.61zM42 69.26a.43.43 0 0 0-.61.07l-1.06 1.34a.42.42 0 0 0 .07.6.36.36 0 0 0 .31.09.39.39 0 0 0 .29-.16l1.07-1.34a.44.44 0 0 0-.07-.6z"/>
  </g>
  <g fill="#01192d">
    <path d="M38.43 47.57l-8.68-3.92a1 1 0 0 0-1.28.48l-4.24 9.38a1 1 0 0 0 .48 1.28l8.69 3.92a1 1 0 0 0 1.28-.48l4.24-9.37a1 1 0 0 0-.49-1.29zM34.24 58a.49.49 0 0 1-.64.24l-8.69-3.93a.48.48 0 0 1-.24-.63l4.24-9.38a.48.48 0 0 1 .64-.24L38.23 48a.48.48 0 0 1 .24.63L34.24 58z"/>
    <path d="M37.7 48.39l-8.08-3.65a.25.25 0 0 0-.32.12l-.74 1.64a.25.25 0 0 0 .12.33l8.07 3.65a.25.25 0 0 0 .33-.13l.74-1.64a.25.25 0 0 0-.12-.32zm-1 1.54l-7.6-3.45.54-1.2 7.63 3.45-.54 1.2zM29.77 48.25l-1.44-.65a.24.24 0 0 0-.32.12l-.36.79a.25.25 0 0 0 .12.33l1.44.65a.25.25 0 0 0 .32-.12l.36-.79a.26.26 0 0 0-.12-.33zm-.58.69l-1-.45.16-.34 1 .45zM32 49.25l-1.44-.65a.25.25 0 0 0-.32.12l-.36.79a.26.26 0 0 0 .12.33l1.44.65a.25.25 0 0 0 .32-.12l.36-.79a.25.25 0 0 0-.12-.33zm-.58.69l-1-.45.16-.34 1 .45zM34.19 50.25l-1.44-.65a.25.25 0 0 0-.32.12l-.36.79a.26.26 0 0 0 .12.33l1.44.65a.26.26 0 0 0 .33-.12l.35-.79a.25.25 0 0 0-.12-.33zm-.58.69l-1-.45.15-.34 1 .45zM36.4 51.25L35 50.6a.25.25 0 0 0-.32.12l-.35.79a.24.24 0 0 0 .12.33l1.44.65a.25.25 0 0 0 .32-.12l.35-.79a.24.24 0 0 0-.16-.33zm-.58.69l-1-.45.16-.34 1 .45zM29 49.89l-1.44-.65a.24.24 0 0 0-.32.12l-.36.79a.24.24 0 0 0 .12.32l1.44.65a.24.24 0 0 0 .32-.12l.36-.79a.24.24 0 0 0-.12-.32zm-.58.69l-1-.45.16-.35 1 .45zM31.24 50.89l-1.44-.65a.24.24 0 0 0-.32.12l-.36.79a.25.25 0 0 0 .12.32l1.44.65A.23.23 0 0 0 31 52l.36-.79a.24.24 0 0 0-.12-.32zm-.58.69l-1-.45.15-.35 1 .45zM33.45 51.89L32 51.24a.24.24 0 0 0-.32.12l-.36.79a.25.25 0 0 0 .13.32l1.44.65a.24.24 0 0 0 .32-.12l.35-.79a.23.23 0 0 0-.11-.32zm-.58.69l-1-.45.16-.35 1 .45zM35.67 52.89l-1.44-.65a.24.24 0 0 0-.33.12l-.35.79a.24.24 0 0 0 .12.32l1.44.65a.24.24 0 0 0 .32-.12l.36-.79a.25.25 0 0 0-.12-.32zm-.58.69l-1-.45.16-.35 1 .45zM28.28 51.55l-1.44-.65a.23.23 0 0 0-.32.12l-.36.79a.24.24 0 0 0 .12.32l1.44.65a.24.24 0 0 0 .32-.12l.36-.79a.24.24 0 0 0-.12-.32zm-.58.69l-1-.45.16-.35 1 .45zM30.49 52.55l-1.44-.65a.23.23 0 0 0-.32.12l-.36.79a.25.25 0 0 0 .12.32l1.44.65a.23.23 0 0 0 .32-.12l.36-.79a.24.24 0 0 0-.12-.32zm-.58.69l-1-.45.15-.35 1 .45zM32.7 53.55l-1.44-.65a.23.23 0 0 0-.32.12l-.36.79a.25.25 0 0 0 .13.32l1.44.65a.25.25 0 0 0 .32-.12l.35-.79a.23.23 0 0 0-.12-.32zm-.58.69l-1-.45.16-.35 1 .45zM27.52 53.23l-1.44-.65a.24.24 0 0 0-.32.12l-.36.79a.25.25 0 0 0 .12.33l1.44.65a.24.24 0 0 0 .32-.13l.36-.79a.25.25 0 0 0-.12-.32zm-.58.69l-1-.45.16-.34 1 .45zM29.73 54.23l-1.44-.65a.25.25 0 0 0-.32.12l-.36.79a.24.24 0 0 0 .12.32l1.44.66a.24.24 0 0 0 .32-.13l.36-.79a.24.24 0 0 0-.12-.32zm-.58.69l-1-.45.16-.34 1 .44zM31.94 55.23l-1.44-.65a.25.25 0 0 0-.32.12l-.36.79a.24.24 0 0 0 .12.32l1.44.66a.25.25 0 0 0 .33-.13l.35-.79a.24.24 0 0 0-.12-.32zm-.58.69l-1-.45.15-.34 1 .44zM34.92 54.54l-1.44-.65a.24.24 0 0 0-.32.12L32 56.49a.23.23 0 0 0 .12.32l1.44.66a.25.25 0 0 0 .32-.13L35 54.86a.24.24 0 0 0-.08-.32zm-1.35 2.38l-1-.45.92-2 1 .45z"/>
    <path d="M36.53 48.85l-2.62-1.18a.24.24 0 1 0-.2.44l2.62 1.18a.23.23 0 0 0 .32-.12.25.25 0 0 0-.12-.32zM33.2 47.35l-.2-.09a.24.24 0 0 0-.32.12.24.24 0 0 0 .12.32l.2.09a.24.24 0 0 0 .2-.44z"/>
  </g>
  <g fill="#01192d">
    <path d="M79.63 66.49a8.42 8.42 0 1 0 8.44 8.4 8.42 8.42 0 0 0-8.44-8.4zm-1 13.45h-.43a3.05 3.05 0 0 1-2.34-5 3.05 3.05 0 0 1 2.31-5h2.84a3.05 3.05 0 1 1 0 6.1h-2.78a.9.9 0 1 0 0 1.79h.43a1.08 1.08 0 0 1 1.08 1.08 1.09 1.09 0 0 1-1.07 1.03zm2.63 0a1.09 1.09 0 1 1 1.08-1.09 1.08 1.08 0 0 1-1.04 1.09zm2.16-.9a.69.69 0 0 1-.69-.68.68.68 0 1 1 .69.68z"/>
    <path d="M78.22 73.84h2.84a.9.9 0 1 0 0-1.79h-2.84a.9.9 0 0 0 0 1.8z"/>
  </g>
  <path fill="#01192d" d="M9.94 1.61a.17.17 0 0 1-.12 0l-.76-.11.27-.17a.25.25 0 0 0-.28-.42l-.37.22V.26a.17.17 0 0 1 0-.12L8.94 0h-.68a.53.53 0 0 0-.06.24v1.13a3 3 0 0 1-1.77.13 1.58 1.58 0 0 1-.31-.09 3.13 3.13 0 0 0 .34-.21A3.48 3.48 0 0 0 7.48 0h-.59a2.82 2.82 0 0 1-.76.78 2.63 2.63 0 0 1-.66.35A5.12 5.12 0 0 1 4.13 0H2.68a1.17 1.17 0 0 0 .51.22 1.08 1.08 0 0 0 .44 0A5.87 5.87 0 0 0 4.79 1.3a2.89 2.89 0 0 1-.88 0A2.94 2.94 0 0 1 2 .06V0h-.65a3.48 3.48 0 0 0 .22.36 3.43 3.43 0 0 0 2.25 1.42 3.45 3.45 0 0 0 1.6-.09 4 4 0 0 0 .86.31h.19a3.68 3.68 0 0 0 1.82-.17h.07l1.37.25a.67.67 0 0 0 .53-.08L12.65.07l.08-.07h-.8zM6.59 16.53l-1.1-.79a1.92 1.92 0 0 0-.62-2.35l-1.54-1.12a.37.37 0 0 0-.15-.33l-1.07-.78a.78.78 0 0 0-.29-.83L0 9v.92l1.38 1L0 12.87v2l.7.5a.39.39 0 0 0 .36.05l1.54 1.09a1.93 1.93 0 0 0 2.46-.16l1.09.79a.38.38 0 0 0 .52-.08.38.38 0 0 0-.08-.53zm-5.75-2L.11 14l1.59-2.21.74.53zm3.85 1.11a1.18 1.18 0 0 1-1.69.27l-1.45-1.09 1.39-1.91L4.43 14a1.18 1.18 0 0 1 .26 1.64zM7.27 30.37L0 27.05v.84l5.48 2.5a2.11 2.11 0 0 0-1.12 2.47l-.77-.35-1.93-.88L0 30.87v.83l1 .46-1 2.19v1a.4.4 0 0 0 .19 0l1-.22.5.91a.36.36 0 0 0 .34.19.37.37 0 0 0 .33-.22L3.6 33.3l1.55.71-5 11L0 45v.84l.19.08a.37.37 0 0 0 .5-.18v-.05L6 34l1.44-3.16a.38.38 0 0 0-.17-.47zM2 35.06l-.28-.49a.36.36 0 0 0-.41-.19l-.56.12.93-2 1.25.5zm3.5-1.74a1.34 1.34 0 0 1-.35-1.59A1.36 1.36 0 0 1 6.59 31z"/>
  <path fill="#01192d" d="M.89 37.87a.39.39 0 0 0-.19-.5l-.7-.32v.84l.38.17a.38.38 0 0 0 .51-.19zM.86 40.48A.38.38 0 0 0 .68 40L0 39.67v.83l.36.16a.37.37 0 0 0 .5-.18zM73.17.4a3 3 0 0 0-.8-.18 3.16 3.16 0 0 0-1 .11 2.21 2.21 0 0 0-1.84 2.56 2.1 2.1 0 0 0 2 1.34 3.37 3.37 0 0 0 1-.1 2.46 2.46 0 0 0 1.91-2L74.55 0H73.2zM73 2.23a1.42 1.42 0 0 1-.86.59 2 2 0 0 1-.59.06c-.43 0-.72-.22-.77-.39a.38.38 0 0 1 0-.26 1.38 1.38 0 0 1 .86-.59 1.73 1.73 0 0 1 .59-.07c.43 0 .72.22.77.39a.41.41 0 0 1 0 .27zM64.49 1.62a2.85 2.85 0 0 0-.79-.17 3.09 3.09 0 0 0-1 .1 2.23 2.23 0 0 0-1.85 2.56 2.13 2.13 0 0 0 2 1.35 3.35 3.35 0 0 0 1-.11 2.42 2.42 0 0 0 1.91-2L66 0h-1.4zm-.17 1.83a1.36 1.36 0 0 1-.85.59 1.51 1.51 0 0 1-.59.06.85.85 0 0 1-.77-.38.31.31 0 0 1 0-.27 1.38 1.38 0 0 1 .89-.59 1.44 1.44 0 0 1 .58-.06c.44 0 .72.22.77.38a.31.31 0 0 1-.03.27zM49.93.42L47.58 1.9 47 1l.31-.57.24-.43h-1.07L46 .8c-1 2-2 2.17-3 1.94-.73-.17-1.42-.59-2-.72s-1.36-.02-2.1-.23A2.16 2.16 0 0 1 37.18 0h-1a3.16 3.16 0 0 0 2.46 2.69 8.51 8.51 0 0 0 1.36.16 3.94 3.94 0 0 1 .76.07 5.17 5.17 0 0 1 .75.28 7.84 7.84 0 0 0 1.27.45 3.27 3.27 0 0 0 3.67-1.76l.3.5a.93.93 0 0 0 1.28.29l2.36-1.47A.93.93 0 0 0 50.76 0h-1.09zM21.93 2.28V0H20a2.3 2.3 0 0 0 1.93 2.28zM22.7 2.28A2.31 2.31 0 0 0 24.63 0H22.7zM86.7 33.84l-.58.82.32.48a.23.23 0 0 1 0 .26.12.12 0 0 1-.05.05.22.22 0 0 1-.32-.06l-1.47-2.15a.23.23 0 0 1 0-.26.23.23 0 0 1 .24-.1l2.52.66a.23.23 0 0 1 .17.28.25.25 0 0 1 0 .07.2.2 0 0 1-.24.09zm-.47-.13l-.92-.23.53.78zM86.53 27.87l-.47-2.4a.22.22 0 0 1 .18-.26l.56-.11a.79.79 0 0 1 .93.62.82.82 0 0 1-.06.49.9.9 0 0 1 .55.66.87.87 0 0 1-.69 1l-.72.14a.24.24 0 0 1-.28-.14zm.15-1.61l.35-.07a.33.33 0 0 0 .26-.39.34.34 0 0 0-.39-.26l-.35.07zm.26 1.29l.51-.1a.43.43 0 0 0-.17-.84l-.51.1zM99.51 81.3a1.82 1.82 0 0 1 .49-1.24v-1.65l-1.83 1v3.67l1.83 1.11v-1.65a1.84 1.84 0 0 1-.49-1.24zM4.53 83.13v-3.67l-3.18-1.84L0 78.4v1.65a1.8 1.8 0 0 1 1.35-.59A1.84 1.84 0 1 1 0 82.53v1.65l1.35.82z"/>
  <circle cx="93.23" cy="80.59" r=".7" fill="#01192d"/>
  <circle cx="57.82" cy="91.59" r=".7" fill="#01192d"/>
  <circle cx="26.14" cy="86.4" r=".7" fill="#01192d"/>
  <circle cx="18.8" cy="61.58" r=".7" fill="#01192d"/>
  <circle cx="14.37" cy="18.87" r=".7" fill="#01192d"/>
  <circle cx="36.92" cy="37.23" r=".7" fill="#01192d"/>
  <circle cx="86.04" cy="57.03" r=".7" fill="#01192d"/>
  <circle cx="71.46" cy="32.46" r=".7" fill="#01192d"/>
  <g fill="#01192d">
    <path d="M96.79 94.28l-1.18-4.74a.81.81 0 0 0-.41-.54l-2.27-1.15a.79.79 0 0 0-1.13.9l.54 2.25-8.6 2.15a.63.63 0 0 0-.46.76l.3 1.18a.61.61 0 0 0 .76.45l8.6-2.15.45 1.79a.72.72 0 0 0 .88.52l2-.5a.72.72 0 0 0 .52-.92zM84.21 95a.11.11 0 0 1-.13-.07l-.29-1.19a.11.11 0 0 1 .07-.13l8.61-2.15.35 1.39L84.21 95zm9.93.16a.21.21 0 0 1-.25-.15l-1.59-6.36a.25.25 0 0 1 .1-.28.25.25 0 0 1 .29 0L95 89.49a.25.25 0 0 1 .14.18l1.19 4.73a.21.21 0 0 1-.15.25l-2 .5z"/>
    <path d="M95.93 94.12l-.35-1.37a.26.26 0 0 0-.5.12l.34 1.37a.26.26 0 0 0 .32.19.26.26 0 0 0 .19-.31zM95.38 91.94v-.11a.25.25 0 0 0-.31-.18.26.26 0 0 0-.19.31v.11a.26.26 0 0 0 .31.19.26.26 0 0 0 .19-.32z"/>
  </g>
  <g fill="#01192d">
    <path d="M31.09 23.66a.29.29 0 0 0-.4 0 .28.28 0 0 0 0 .4.28.28 0 1 0 .39-.41zM25.22 26.11a1.14 1.14 0 0 0-.81-.31 1.18 1.18 0 0 0-.79.35 1.14 1.14 0 1 0 1.64 1.57 1.17 1.17 0 0 0 .32-.81 1.15 1.15 0 0 0-.36-.8zm-.37 1.22a.52.52 0 0 1-.39.17.55.55 0 0 1-.41-.15.56.56 0 0 1-.17-.4.54.54 0 0 1 .15-.4.56.56 0 0 1 .8 0 .53.53 0 0 1 .18.39.57.57 0 0 1-.16.39zM28.93 29.63a1.16 1.16 0 0 0-.81-.31 1.14 1.14 0 0 0-.8.35 1.14 1.14 0 0 0 .85 1.92 1.14 1.14 0 0 0 .8-.35 1.12 1.12 0 0 0 .31-.81 1.14 1.14 0 0 0-.35-.8zm-.37 1.22a.59.59 0 0 1-.81 0 .56.56 0 0 1-.17-.4.54.54 0 0 1 .15-.4.57.57 0 0 1 .81 0 .52.52 0 0 1 .17.39.56.56 0 0 1-.15.41z"/>
    <path d="M36.4 18.07a.32.32 0 0 0-.25-.07 9.18 9.18 0 0 0-1.23.3 8.83 8.83 0 0 0-3.68 2.31l-2.57 2.71-1 1-.27-.25a.85.85 0 0 0-1.1-.07l-.93.82a2.27 2.27 0 1 0 .71 3.63l2.23-2.34.39-.4.4-.41a.85.85 0 0 1 1-.19l-.94 1-2.66 2.78a2.28 2.28 0 0 0 1.7 3.84 2.31 2.31 0 0 0 1.59-.73 2.28 2.28 0 0 0 .38-2.6l.78-1a.84.84 0 0 0-.12-1.1l-.26-.25 1.53-1.61a.41.41 0 0 0 0-.09c.06 0 .12-.1.18-.15l1.78-1.89a8.79 8.79 0 0 0 2.36-5 .31.31 0 0 0-.02-.24zm-10.72 10a1.7 1.7 0 1 1-.4-2.66h.33l1.07-.94a.28.28 0 0 1 .36 0l.47.45.62.58zm4.82 0l-.89 1.1a1.7 1.7 0 1 1-2.67-.26l2.45-2.56 1.09 1a.28.28 0 0 1 .02.76zm-.34-1.41l-.41-.39.81-.85a1.28 1.28 0 0 0 .58.21zM33.71 23l-1.79 1.89a.62.62 0 0 1-.2.15.83.83 0 0 1-1-.12 1.42 1.42 0 0 0-2 .05l-.19.2-.41-.39 1-1L31.65 21a8.25 8.25 0 0 1 3-2 7.16 7.16 0 0 1-1.74 3.23l-.78.83a.28.28 0 0 0 0 .4.3.3 0 0 0 .2.08.4.4 0 0 0 .2-.09l.78-.83a7.76 7.76 0 0 0 2-3.84l.6-.16a8.21 8.21 0 0 1-2.2 4.38z"/>
  </g>
  <path fill="#01192d" d="M45.83 53.44a1.95 1.95 0 1 0 2-1.94 1.94 1.94 0 0 0-2 1.94zm2.27-1.3v1h1v.64h-1v1h-.65v-1h-1v-.64h1v-1z" data-name="&lt;Compound Path&gt;"/>
  <g fill="#01192d">
    <path d="M73 14.16a3.34 3.34 0 1 0 2 4.26 3.33 3.33 0 0 0-2-4.26zm-2 5.78a2.8 2.8 0 1 1 3.59-1.7 2.81 2.81 0 0 1-3.59 1.7z"/>
    <path d="M72.62 15.34A2.08 2.08 0 1 0 73.87 18a2.08 2.08 0 0 0-1.25-2.66zm-1.23 3.44a1.58 1.58 0 1 1 2-1 1.58 1.58 0 0 1-2 1z"/>
    <path d="M78.68 15.15L75.47 14v-1a.73.73 0 0 0-.48-.66l-2.29-.82a.7.7 0 0 0-.78.22l-.65.77-1.1-.39.13-.35a.54.54 0 0 0-.33-.69l-.76-.27a.53.53 0 0 0-.69.33l-.13.35-.39-.14a.83.83 0 0 0-1.07.5l-2.33 6.52a.84.84 0 0 0 .51 1.08l10.64 3.8a.84.84 0 0 0 1.07-.51l2.33-6.52a.83.83 0 0 0-.47-1.07zm-6.34-3.08a.15.15 0 0 1 .17 0l2.29.82a.14.14 0 0 1 .1.14v.81l-3.09-1.11zM69 11.29l.76.27-.13.36-.78-.28zm-2 2l.78.28-1.47 4.12-.78-.28zm9.28 9.31a.28.28 0 0 1-.36.17l-10.65-3.8a.27.27 0 0 1-.16-.36l.24-.67 1 .37a.29.29 0 0 0 .36-.17l1.65-4.64a.27.27 0 0 0-.16-.36l-1-.37.24-.68a.3.3 0 0 1 .36-.17l7.24 2.59 3.4 1.21a.29.29 0 0 1 .17.36l-.25.68-1-.38a.28.28 0 0 0-.35.17l-1.66 4.65a.27.27 0 0 0 .17.35l1 .38-.24.67zm.43-1.2l-.71-.33L77.46 17l.78.28z"/>
    <path d="M72.26 16.33A1 1 0 0 0 71 17a.25.25 0 1 0 .47.17.53.53 0 0 1 .67-.32.25.25 0 0 0 .17-.47z"/>
  </g>
  <path fill="#01192d" d="M29.58 12.6a1.3 1.3 0 0 0-.58-1.37 4.12 4.12 0 0 0-1.81-2.93A1.47 1.47 0 0 0 26 6.88a1.45 1.45 0 0 0-1.63.81 4.13 4.13 0 0 0-2.87 1.89 1.31 1.31 0 0 0-.19 2.54.83.83 0 0 0 0 .15 1.13 1.13 0 0 0 0 .25l.07 2.41a1 1 0 0 0 .81 1l3.71.82a1 1 0 0 0 1.1-.58L28 14a.63.63 0 0 0 .08-.23 1.1 1.1 0 0 0 0-.16 1.32 1.32 0 0 0 1.5-1.01zm-3.73-4.86a.58.58 0 1 1-.25 1.14.58.58 0 0 1 .25-1.14zm1.41 5.88l-1.08 2.16a.14.14 0 0 1-.16.08l-3.71-.81a.15.15 0 0 1-.12-.14l-.07-2.41a.15.15 0 0 1 .18-.11l4.86 1.06a.16.16 0 0 1 .11.18zm.94-.88l-6.57-1.44a.44.44 0 0 1-.34-.52.44.44 0 0 1 .45-.34H22l.13-.24a3.22 3.22 0 0 1 2.17-1.6 1.46 1.46 0 0 0 2.61.57 3.25 3.25 0 0 1 1.28 2.36v.28l.26.1a.43.43 0 0 1 .26.5.42.42 0 0 1-.51.33z"/>
  <g fill="#01192d">
    <path d="M18.53 75.14a.23.23 0 0 0 .15-.29l-.21-.7a.52.52 0 0 0-.64-.34l-4.69 1.45a.19.19 0 0 0-.14.11l-1.27 2.4a.28.28 0 0 0 0 .18l2 6.64a.52.52 0 0 0 .64.34L20.65 83a.5.5 0 0 0 .34-.63L20 79a.23.23 0 0 0-.44.14l1 3.38a.06.06 0 0 1 0 .06l-6.27 1.92h-.05l-2-6.43 1.35-.41a.51.51 0 0 0 .33-.64l-.41-1.35L18 74.26h.05l.22.7a.22.22 0 0 0 .26.18zm-5.06 2l-1 .32.75-1.41z"/>
    <path d="M20.36 75l-.36-.17a.78.78 0 0 0-1.06.33l-1.43 2.7L13.93 79a.22.22 0 0 0-.16.29.23.23 0 0 0 .29.15l3.15-1-.92 1.75-1.82.56a.22.22 0 0 0-.15.29.23.23 0 0 0 .29.15l1.39-.42a.27.27 0 0 0 0 .12v1.34l-1 .29a.25.25 0 0 0-.16.29.23.23 0 0 0 .29.16l1.14-.35h.05l1.28-.81a.22.22 0 0 0 .08-.09l3-5.62a.79.79 0 0 0-.32-1.1zm-3.92 7v-.71l.62.33zm1-.71l-.9-.49L19 76.15l.91.48zm2.87-5.42l-.19.37-.91-.48.19-.37a.34.34 0 0 1 .44-.13l.34.18a.32.32 0 0 1 .09.41z"/>
  </g>
  <g fill="#01192d">
    <path d="M54 83.49a4.28 4.28 0 0 0 5.62 2.25A4.29 4.29 0 0 0 62 80.4l.67-.29.29.68a.31.31 0 0 0 .16.16.33.33 0 0 0 .24 0l3.16-1.36a1.32 1.32 0 0 0 .72-.73 1.35 1.35 0 0 0-1.78-1.74l-3.16 1.36a.29.29 0 0 0-.17.17.31.31 0 0 0 0 .23l.29.68-.67.28a4.28 4.28 0 0 0-7.78.37 4.29 4.29 0 0 0 .03 3.28zm11.68-5.81a.73.73 0 0 1 .56 0 .72.72 0 0 1 .41.39.68.68 0 0 1 0 .56.7.7 0 0 1-.39.4l-1.76.76-.58-1.35zm-2.32 1l.56 1.32-.56.24-.58-1.35zm-6.87-.26a3.67 3.67 0 0 1 4.86 4.75 3.68 3.68 0 0 1-6.83-2.73 3.71 3.71 0 0 1 1.95-2.02z"/>
    <path d="M55.19 83A3 3 0 1 0 59 79.05a2.93 2.93 0 0 0-2.27 0A3 3 0 0 0 55.19 83zM57 79.63A2.36 2.36 0 1 1 58.85 84a2.36 2.36 0 0 1-3.1-1.24A2.37 2.37 0 0 1 57 79.63z"/>
    <path d="M56.45 82.43a1.6 1.6 0 0 0 2.1.84.31.31 0 0 0 .16-.4.32.32 0 0 0-.4-.16 1 1 0 0 1-1.3-.52.37.37 0 0 0-.17-.16.31.31 0 0 0-.23 0 .3.3 0 0 0-.16.4z"/>
  </g>
  <g fill="#01192d">
    <path d="M13.91 29.79l-1.54.56a1.52 1.52 0 0 0-.9 1.95.32.32 0 0 0 .4.19l2.3-.84a.2.2 0 0 1 .26.12l.33.9-2.55.94A.31.31 0 0 0 12 34l4.87 13.33a1.52 1.52 0 0 0 1.95.9 1.49 1.49 0 0 0 .85-.78 1.46 1.46 0 0 0 0-1.16l-2-5.54.12-.47.65 1.77a.92.92 0 0 0 .47.52.94.94 0 0 0 .7 0 .93.93 0 0 0 .54-1.18l-1.1-3 .46-.17a.3.3 0 0 0 .17-.16.33.33 0 0 0 0-.24l-.53-1.46a.33.33 0 0 0-.16-.17.29.29 0 0 0-.24 0l-.19.07-1-2.83a1.63 1.63 0 0 0-.62-.81l-.64-1.74a1.89 1.89 0 0 0-2.39-1.09zm5.71 11.86a.29.29 0 0 1-.18.37.28.28 0 0 1-.22 0 .29.29 0 0 1-.15-.16l-1.1-3 .55-.2zm-.57-3.87l-2 .75-.31-.87 2-.75zM17 33.67l1 2.83-1.84.68a.31.31 0 0 0-.18.16.33.33 0 0 0 0 .24l.55 1.42a.32.32 0 0 0 .4.19l.46-.17.07.2-.37 1.45a.37.37 0 0 0 0 .18l2.06 5.63a.89.89 0 1 1-1.68.61l-4.77-13L15.61 33a1.08 1.08 0 0 1 1.39.67zm-1.26-2.54l.45 1.22a1.83 1.83 0 0 0-.8.09l-.39-.89a.83.83 0 0 0-1-.49l-2 .71a.89.89 0 0 1 .59-.83l1.53-.56a1.27 1.27 0 0 1 1.62.75z"/>
    <path d="M14 35.36a.31.31 0 0 0-.18.4l.59 1.64a.31.31 0 0 0 .4.18.32.32 0 0 0 .18-.16.33.33 0 0 0 0-.24l-.6-1.63a.31.31 0 0 0-.39-.19zM13.54 34.2a.32.32 0 0 0-.19.4l.05.12a.31.31 0 0 0 .4.19.3.3 0 0 0 .17-.16.29.29 0 0 0 0-.24v-.12a.31.31 0 0 0-.43-.19z"/>
  </g>
  <g fill="#01192d">
    <path d="M55.77 10.69l-5.94-1.52a1 1 0 0 0-1.2.71l-1.53 5.93a1 1 0 0 0 .72 1.19l5.93 1.52a1 1 0 0 0 1.25-.69l1.52-5.94a1 1 0 0 0-.75-1.2zm-1.33 7a.45.45 0 0 1-.56.32L48 16.5a.46.46 0 0 1-.33-.55L49.14 10a.47.47 0 0 1 .56-.33l5.93 1.53a.45.45 0 0 1 .33.55l-1.52 5.95z"/>
    <path d="M52.45 11.29a2.65 2.65 0 1 0 1.91 3.22 2.65 2.65 0 0 0-1.91-3.22zm-1.18 4.61a2.11 2.11 0 0 1-1.58-2.31h.09a.26.26 0 0 0 .32-.19.26.26 0 0 0-.19-.32h-.08a2.11 2.11 0 0 1 4.06 1h-.08a.26.26 0 0 0-.33.19.27.27 0 0 0 .19.32h.09a2.11 2.11 0 0 1-2.49 1.31z"/>
    <path d="M51.29 13.08a.26.26 0 0 0-.32.19l-.18.7a.26.26 0 0 0 .19.32.27.27 0 0 0 .33-.19l.18-.69a.27.27 0 0 0-.2-.33zM52.6 13.42a.26.26 0 0 0-.32.19l-.18.69a.27.27 0 0 0 .19.33.28.28 0 0 0 .33-.2l.17-.69a.26.26 0 0 0-.19-.32zM54 20.19l-.28-.07a.27.27 0 0 0-.33.19.28.28 0 0 0 .2.33l.28.07a.26.26 0 0 0 .32-.19.27.27 0 0 0-.19-.33zM52.51 19.8l-6.74-1.72a2 2 0 0 1-1.4-2.36l.23-.87a2.19 2.19 0 0 0 2.47-1.61l.45-1.75a.66.66 0 0 0-.47-.8l-.53-.13.37-1.46a.26.26 0 0 0-.19-.33.27.27 0 0 0-.32.19L46 10.42l-1.13-.29.37-1.46a.26.26 0 0 0-.19-.32.26.26 0 0 0-.32.19L44.35 10l-.52-.13a.67.67 0 0 0-.81.47l-.44 1.74a2.19 2.19 0 0 0 1.5 2.64l-.23.87a2.47 2.47 0 0 0 1.78 3l6.75 1.73a.26.26 0 0 0 .32-.19.27.27 0 0 0-.19-.33zm-8.23-5.58a1.63 1.63 0 0 1-1.18-2l.44-1.75a.14.14 0 0 1 .15-.09l3.22.83a.12.12 0 0 1 .09.15l-.44 1.74a1.66 1.66 0 0 1-2 1.19l-.27-.07z"/>
  </g>
  <g fill="#01192d">
    <path d="M83.62 45.5L81 42.69a.28.28 0 1 0-.42.38l2.42 2.6-1.52 1.4a.11.11 0 0 1-.16 0l-2.76-3a.11.11 0 0 1 0-.16l1-.94a.28.28 0 0 0 0-.4.28.28 0 0 0-.4 0l-1 .94a.67.67 0 0 0-.18.75l-.35.32-1.27-.06h-1.04l-.4-.43a.58.58 0 0 0 0-.19.69.69 0 0 0-.18-.49l-.92-1a.28.28 0 0 0-.4 0 .31.31 0 0 0 0 .41l.92 1a.1.1 0 0 1 0 .08.12.12 0 0 1 0 .08l-.08.08-2.92 2.69h-.08a.12.12 0 0 1-.08 0l-1.4-1.52 2.63-2.43a.28.28 0 0 0 0-.4.28.28 0 0 0-.4 0l-2.81 2.5a.3.3 0 0 0 0 .41L70.78 47a.74.74 0 0 0 .47.22.64.64 0 0 0 .24 0l.9 1a.85.85 0 0 0-.13.45 1 1 0 0 0 .93 1 1 1 0 0 0 .93 1 1 1 0 0 0 .94 1 .91.91 0 0 0 .46-.1l.33.37a.87.87 0 0 0 .6.28.94.94 0 0 0 .63-.23.88.88 0 0 0 .27-.57.89.89 0 0 0 .59-.23.87.87 0 0 0 .29-.62 1 1 0 0 0 .65-.29.92.92 0 0 0 .28-.64.88.88 0 0 0 .64-.24.9.9 0 0 0 .3-.65.85.85 0 0 0-.08-.42l1-.82a.62.62 0 0 0 .39.14.67.67 0 0 0 .49-.18l1.7-1.57a.28.28 0 0 0 .02-.4zm-10.41 3.59a.41.41 0 1 1 .42-.39.39.39 0 0 1-.42.39zm1.25.89a.41.41 0 0 1-.66-.33.41.41 0 0 1 .81 0 .41.41 0 0 1-.15.35zm.92 1a.43.43 0 0 1-.29.1.42.42 0 0 1-.39-.42.4.4 0 0 1 .12-.26.44.44 0 0 1 .27-.09.41.41 0 0 1 .27.7zm4-2a.36.36 0 0 1-.26.09.33.33 0 0 1-.25-.11l-.57-.62a.28.28 0 0 0-.4 0 .27.27 0 0 0 0 .4l.57.61a.39.39 0 0 1-.29.65.45.45 0 0 1-.27-.12l-.55-.56a.28.28 0 0 0-.41.39l.6.62a.27.27 0 0 1 .08.22.27.27 0 0 1-.1.22.29.29 0 0 1-.43 0l-.28-.3a.28.28 0 0 0-.4 0 .25.25 0 0 0-.09.2.26.26 0 0 0 .07.2l.29.31a.27.27 0 0 1 .07.21.29.29 0 0 1-.09.21.32.32 0 0 1-.21.08.35.35 0 0 1-.21-.1l-.33-.36a.9.9 0 0 0 .13-.45 1 1 0 0 0-.93-1 1 1 0 0 0-.93-1 1 1 0 0 0-.93-1 1 1 0 0 0-.46.1l-.8-.99 2.62-2.41.42.45a.3.3 0 0 0 .2.1h.36l-1.17 1.08a.92.92 0 0 0 0 1.29.91.91 0 0 0 .63.29.93.93 0 0 0 .66-.24l1-.92 1 .06 1.77 1.9a.35.35 0 0 1 .09.26.36.36 0 0 1-.16.26zm.25-1.1L78 46.12a.33.33 0 0 0-.23-.09L76.53 46a.31.31 0 0 0-.21.07l-1.08 1a.34.34 0 0 1-.24.09.32.32 0 0 1-.24-.11.36.36 0 0 1-.09-.24.3.3 0 0 1 .11-.24l1.59-1.47 1.38.06a.27.27 0 0 0 .2-.07l.4-.37 2.25 2.44z"/>
    <circle cx="81.59" cy="45.75" r=".28"/>
    <circle cx="71.17" cy="45.35" r=".28"/>
    <circle cx="72.98" cy="41.87" r=".28"/>
    <circle cx="80.09" cy="42.14" r=".28"/>
  </g>
  <path fill="#01192d" d="M93.14 23.91a1.52 1.52 0 0 1 .08-2.13 1.58 1.58 0 0 1 .91-.43.25.25 0 0 1 .26.21.25.25 0 0 1-.21.27 1 1 0 0 0-.64.29 1.1 1.1 0 0 0-.33.73 1 1 0 0 0 .28.73 1 1 0 0 0 .71.31 1.12 1.12 0 0 0 .8-.29 1.06 1.06 0 0 0 .32-.63.25.25 0 0 1 .27-.19.24.24 0 0 1 .2.27 1.54 1.54 0 0 1-2.6.86z"/>
</svg>
